<svg width="1099" height="456" viewBox="0 0 1099 456" fill="none" xmlns="http://www.w3.org/2000/svg">
<path d="M917 273C914.239 273 912 270.761 912 268C912 265.239 914.239 263 917 263C919.761 263 922 265.239 922 268C922 270.761 919.761 273 917 273Z" stroke="#080808" stroke-width="6"/>
<path d="M984 433C981.239 433 979 430.761 979 428C979 425.239 981.239 423 984 423C986.761 423 989 425.239 989 428C989 430.761 986.761 433 984 433Z" stroke="#080808" stroke-width="6"/>
<path d="M1045 333C1042.24 333 1040 330.761 1040 328C1040 325.239 1042.24 323 1045 323C1047.76 323 1050 325.239 1050 328C1050 330.761 1047.76 333 1045 333Z" stroke="#080808" stroke-width="6"/>
<path d="M961 305C958.239 305 956 302.761 956 300C956 297.239 958.239 295 961 295C963.761 295 966 297.239 966 300C966 302.761 963.761 305 961 305Z" stroke="#080808" stroke-width="6"/>
<path d="M949 257C946.239 257 944 254.761 944 252C944 249.239 946.239 247 949 247C951.761 247 954 249.239 954 252C954 254.761 951.761 257 949 257Z" stroke="#080808" stroke-width="6"/>
<path d="M1089 225C1086.24 225 1084 222.761 1084 220C1084 217.239 1086.24 215 1089 215C1091.76 215 1094 217.239 1094 220C1094 222.761 1091.76 225 1089 225Z" stroke="#080808" stroke-width="6"/>
<path d="M815 177C812.239 177 810 174.761 810 172C810 169.239 812.239 167 815 167C817.761 167 820 169.239 820 172C820 174.761 817.761 177 815 177Z" stroke="#080808" stroke-width="6"/>
<path d="M794 161C791.239 161 789 158.761 789 156C789 153.239 791.239 151 794 151C796.761 151 799 153.239 799 156C799 158.761 796.761 161 794 161Z" stroke="#080808" stroke-width="6"/>
<path d="M933 209C930.239 209 928 206.761 928 204C928 201.239 930.239 199 933 199C935.761 199 938 201.239 938 204C938 206.761 935.761 209 933 209Z" stroke="#080808" stroke-width="6"/>
<path d="M996 390C993.239 390 991 387.761 991 385C991 382.239 993.239 380 996 380C998.761 380 1001 382.239 1001 385C1001 387.761 998.761 390 996 390Z" stroke="#080808" stroke-width="6"/>
<path d="M1071 389C1068.24 389 1066 386.761 1066 384C1066 381.239 1068.24 379 1071 379C1073.76 379 1076 381.239 1076 384C1076 386.761 1073.76 389 1071 389Z" stroke="#080808" stroke-width="6"/>
<path d="M1075 193C1072.24 193 1070 190.761 1070 188C1070 185.239 1072.24 183 1075 183C1077.76 183 1080 185.239 1080 188C1080 190.761 1077.76 193 1075 193Z" stroke="#080808" stroke-width="6"/>
<path d="M996 209C993.239 209 991 206.761 991 204C991 201.239 993.239 199 996 199C998.761 199 1001 201.239 1001 204C1001 206.761 998.761 209 996 209Z" stroke="#080808" stroke-width="6"/>
<path d="M928 121C925.239 121 923 118.761 923 116C923 113.239 925.239 111 928 111C930.761 111 933 113.239 933 116C933 118.761 930.761 121 928 121Z" stroke="#080808" stroke-width="6"/>
<path d="M839 113C836.239 113 834 110.761 834 108C834 105.239 836.239 103 839 103C841.761 103 844 105.239 844 108C844 110.761 841.761 113 839 113Z" stroke="#080808" stroke-width="6"/>
<path d="M957 77C954.239 77 952 74.7614 952 72C952 69.2386 954.239 67 957 67C959.761 67 962 69.2386 962 72C962 74.7614 959.761 77 957 77Z" stroke="#080808" stroke-width="6"/>
<path d="M908 95C905.239 95 903 92.7614 903 90C903 87.2386 905.239 85 908 85C910.761 85 913 87.2386 913 90C913 92.7614 910.761 95 908 95Z" stroke="#080808" stroke-width="6"/>
<path d="M953 53C950.239 53 948 50.7614 948 48C948 45.2386 950.239 43 953 43C955.761 43 958 45.2386 958 48C958 50.7614 955.761 53 953 53Z" stroke="#080808" stroke-width="6"/>
<path d="M1075 41C1072.24 41 1070 38.7614 1070 36C1070 33.2386 1072.24 31 1075 31C1077.76 31 1080 33.2386 1080 36C1080 38.7614 1077.76 41 1075 41Z" stroke="#080808" stroke-width="6"/>
<path d="M1004 300C999.582 300 996 296.418 996 292C996 287.582 999.582 284 1004 284C1008.42 284 1012 287.582 1012 292C1012 296.418 1008.42 300 1004 300Z" stroke="#080808" stroke-width="8"/>
<path d="M1063 320C1058.58 320 1055 316.418 1055 312C1055 307.582 1058.58 304 1063 304C1067.42 304 1071 307.582 1071 312C1071 316.418 1067.42 320 1063 320Z" stroke="#080808" stroke-width="8"/>
<path d="M976 404C971.582 404 968 400.418 968 396C968 391.582 971.582 388 976 388C980.418 388 984 391.582 984 396C984 400.418 980.418 404 976 404Z" stroke="#080808" stroke-width="8"/>
<path d="M1087 372C1082.58 372 1079 368.418 1079 364C1079 359.582 1082.58 356 1087 356C1091.42 356 1095 359.582 1095 364C1095 368.418 1091.42 372 1087 372Z" stroke="#080808" stroke-width="8"/>
<path d="M1053 452C1048.58 452 1045 448.418 1045 444C1045 439.582 1048.58 436 1053 436C1057.42 436 1061 439.582 1061 444C1061 448.418 1057.42 452 1053 452Z" stroke="#080808" stroke-width="8"/>
<path d="M1016 276C1011.58 276 1008 272.418 1008 268C1008 263.582 1011.58 260 1016 260C1020.42 260 1024 263.582 1024 268C1024 272.418 1020.42 276 1016 276Z" stroke="#080808" stroke-width="8"/>
<path d="M973 248C968.582 248 965 244.418 965 240C965 235.582 968.582 232 973 232C977.418 232 981 235.582 981 240C981 244.418 977.418 248 973 248Z" stroke="#080808" stroke-width="8"/>
<path d="M973 200C968.582 200 965 196.418 965 192C965 187.582 968.582 184 973 184C977.418 184 981 187.582 981 192C981 196.418 977.418 200 973 200Z" stroke="#080808" stroke-width="8"/>
<path d="M916 176C911.582 176 908 172.418 908 168C908 163.582 911.582 160 916 160C920.418 160 924 163.582 924 168C924 172.418 920.418 176 916 176Z" stroke="#080808" stroke-width="8"/>
<path d="M969 160C964.582 160 961 156.418 961 152C961 147.582 964.582 144 969 144C973.418 144 977 147.582 977 152C977 156.418 973.418 160 969 160Z" stroke="#080808" stroke-width="8"/>
<path d="M1035 144C1030.58 144 1027 140.418 1027 136C1027 131.582 1030.58 128 1035 128C1039.42 128 1043 131.582 1043 136C1043 140.418 1039.42 144 1035 144Z" stroke="#080808" stroke-width="8"/>
<path d="M1040 96C1035.58 96 1032 92.4183 1032 88C1032 83.5817 1035.58 80 1040 80C1044.42 80 1048 83.5817 1048 88C1048 92.4183 1044.42 96 1040 96Z" stroke="#080808" stroke-width="8"/>
<path d="M1083 22C1078.58 22 1075 18.4183 1075 14C1075 9.58172 1078.58 6 1083 6C1087.42 6 1091 9.58172 1091 14C1091 18.4183 1087.42 22 1083 22Z" stroke="#080808" stroke-width="8"/>
<path d="M362 44H735" stroke="#080808" stroke-width="8"/>
<path d="M362 60H735" stroke="#080808" stroke-width="8"/>
<path d="M362 76H735" stroke="#080808" stroke-width="8"/>
<path d="M362 92H735" stroke="#080808" stroke-width="8"/>
<path d="M362 108H735" stroke="#080808" stroke-width="8"/>
<path d="M362 124H735" stroke="#080808" stroke-width="8"/>
<path d="M362 140H735" stroke="#080808" stroke-width="8"/>
<path d="M362 156H735" stroke="#080808" stroke-width="8"/>
<path d="M362 172H735" stroke="#080808" stroke-width="8"/>
<path d="M362 188H735" stroke="#080808" stroke-width="8"/>
<path d="M362 220H735" stroke="#080808" stroke-width="8"/>
<path d="M362 236H735" stroke="#080808" stroke-width="8"/>
<path d="M362 252H735" stroke="#080808" stroke-width="8"/>
<path d="M362 268H735" stroke="#080808" stroke-width="8"/>
<path d="M362 284H735" stroke="#080808" stroke-width="8"/>
<path d="M362 300H735" stroke="#080808" stroke-width="8"/>
<path d="M362 316H735" stroke="#080808" stroke-width="8"/>
<path d="M362 332H735" stroke="#080808" stroke-width="8"/>
<path d="M362 348H735" stroke="#080808" stroke-width="8"/>
<path d="M362 364H735" stroke="#080808" stroke-width="8"/>
<path d="M362 380H735" stroke="#080808" stroke-width="8"/>
<path d="M362 396H735" stroke="#080808" stroke-width="8"/>
<path d="M362 412H735" stroke="#080808" stroke-width="8"/>
<path d="M362 204H735" stroke="#080808" stroke-width="8"/>
<path d="M735 44H913L944.5 14.5H1074.5M735 60H918.5L949 31H1074.5M735 76H925L952.5 50M735 92H903.5M735 108H812.5L844 133H1029M735 124H809.5L837 147.5H964.5M735 140H805.5L830.5 163.5H910.5M735 412H922L977 444.5H1046.5M735 396H926L980 427.5M735 379.5H926L969.5 402M735 365H1083M735 347H954L977 328.5H1042.5M733.5 332.5H946.5L969.5 314H1054.5M735 156H788.5M735 172H809.5M735 188H964.5M735 316H939L958.5 301M735 300H931.5L949 285.5H998M841.5 108H915.5L954.5 76M931.5 115.5L964.5 87H1035.5M735 204H928.5M735 220H1083M735 284H924.5L943 268.5H1009.5M733.5 268.5H911.5M735 236H964.5M735 252H943" stroke="#080808" stroke-width="8"/>
<path d="M1001.5 204H1055.5L1073 192.5M1001.5 385H1068" stroke="#080808" stroke-width="8"/>
<path d="M182 183C184.761 183 187 185.239 187 188C187 190.761 184.761 193 182 193C179.239 193 177 190.761 177 188C177 185.239 179.239 183 182 183Z" stroke="#080808" stroke-width="6"/>
<path d="M115 23C117.761 23 120 25.2386 120 28C120 30.7614 117.761 33 115 33C112.239 33 110 30.7614 110 28C110 25.2386 112.239 23 115 23Z" stroke="#080808" stroke-width="6"/>
<path d="M54 123C56.7614 123 59 125.239 59 128C59 130.761 56.7614 133 54 133C51.2386 133 49 130.761 49 128C49 125.239 51.2386 123 54 123Z" stroke="#080808" stroke-width="6"/>
<path d="M138 151C140.761 151 143 153.239 143 156C143 158.761 140.761 161 138 161C135.239 161 133 158.761 133 156C133 153.239 135.239 151 138 151Z" stroke="#080808" stroke-width="6"/>
<path d="M150 199C152.761 199 155 201.239 155 204C155 206.761 152.761 209 150 209C147.239 209 145 206.761 145 204C145 201.239 147.239 199 150 199Z" stroke="#080808" stroke-width="6"/>
<path d="M10 231C12.7614 231 15 233.239 15 236C15 238.761 12.7614 241 10 241C7.23858 241 5 238.761 5 236C5 233.239 7.23858 231 10 231Z" stroke="#080808" stroke-width="6"/>
<path d="M284 279C286.761 279 289 281.239 289 284C289 286.761 286.761 289 284 289C281.239 289 279 286.761 279 284C279 281.239 281.239 279 284 279Z" stroke="#080808" stroke-width="6"/>
<path d="M305 295C307.761 295 310 297.239 310 300C310 302.761 307.761 305 305 305C302.239 305 300 302.761 300 300C300 297.239 302.239 295 305 295Z" stroke="#080808" stroke-width="6"/>
<path d="M166 247C168.761 247 171 249.239 171 252C171 254.761 168.761 257 166 257C163.239 257 161 254.761 161 252C161 249.239 163.239 247 166 247Z" stroke="#080808" stroke-width="6"/>
<path d="M103 66C105.761 66 108 68.2386 108 71C108 73.7614 105.761 76 103 76C100.239 76 98 73.7614 98 71C98 68.2386 100.239 66 103 66Z" stroke="#080808" stroke-width="6"/>
<path d="M28 67C30.7614 67 33 69.2386 33 72C33 74.7614 30.7614 77 28 77C25.2386 77 23 74.7614 23 72C23 69.2386 25.2386 67 28 67Z" stroke="#080808" stroke-width="6"/>
<path d="M24 263C26.7614 263 29 265.239 29 268C29 270.761 26.7614 273 24 273C21.2386 273 19 270.761 19 268C19 265.239 21.2386 263 24 263Z" stroke="#080808" stroke-width="6"/>
<path d="M103 247C105.761 247 108 249.239 108 252C108 254.761 105.761 257 103 257C100.239 257 98 254.761 98 252C98 249.239 100.239 247 103 247Z" stroke="#080808" stroke-width="6"/>
<path d="M171 335C173.761 335 176 337.239 176 340C176 342.761 173.761 345 171 345C168.239 345 166 342.761 166 340C166 337.239 168.239 335 171 335Z" stroke="#080808" stroke-width="6"/>
<path d="M260 343C262.761 343 265 345.239 265 348C265 350.761 262.761 353 260 353C257.239 353 255 350.761 255 348C255 345.239 257.239 343 260 343Z" stroke="#080808" stroke-width="6"/>
<path d="M142 379C144.761 379 147 381.239 147 384C147 386.761 144.761 389 142 389C139.239 389 137 386.761 137 384C137 381.239 139.239 379 142 379Z" stroke="#080808" stroke-width="6"/>
<path d="M191 361C193.761 361 196 363.239 196 366C196 368.761 193.761 371 191 371C188.239 371 186 368.761 186 366C186 363.239 188.239 361 191 361Z" stroke="#080808" stroke-width="6"/>
<path d="M146 403C148.761 403 151 405.239 151 408C151 410.761 148.761 413 146 413C143.239 413 141 410.761 141 408C141 405.239 143.239 403 146 403Z" stroke="#080808" stroke-width="6"/>
<path d="M24 415C26.7614 415 29 417.239 29 420C29 422.761 26.7614 425 24 425C21.2386 425 19 422.761 19 420C19 417.239 21.2386 415 24 415Z" stroke="#080808" stroke-width="6"/>
<path d="M95 156C99.4183 156 103 159.582 103 164C103 168.418 99.4183 172 95 172C90.5817 172 87 168.418 87 164C87 159.582 90.5817 156 95 156Z" stroke="#080808" stroke-width="8"/>
<path d="M36 136C40.4183 136 44 139.582 44 144C44 148.418 40.4183 152 36 152C31.5817 152 28 148.418 28 144C28 139.582 31.5817 136 36 136Z" stroke="#080808" stroke-width="8"/>
<path d="M123 52C127.418 52 131 55.5817 131 60C131 64.4183 127.418 68 123 68C118.582 68 115 64.4183 115 60C115 55.5817 118.582 52 123 52Z" stroke="#080808" stroke-width="8"/>
<path d="M12 84C16.4183 84 20 87.5817 20 92C20 96.4183 16.4183 100 12 100C7.58172 100 4 96.4183 4 92C4 87.5817 7.58172 84 12 84Z" stroke="#080808" stroke-width="8"/>
<path d="M46 4C50.4183 4 54 7.58172 54 12C54 16.4183 50.4183 20 46 20C41.5817 20 38 16.4183 38 12C38 7.58172 41.5817 4 46 4Z" stroke="#080808" stroke-width="8"/>
<path d="M83 180C87.4183 180 91 183.582 91 188C91 192.418 87.4183 196 83 196C78.5817 196 75 192.418 75 188C75 183.582 78.5817 180 83 180Z" stroke="#080808" stroke-width="8"/>
<path d="M126 208C130.418 208 134 211.582 134 216C134 220.418 130.418 224 126 224C121.582 224 118 220.418 118 216C118 211.582 121.582 208 126 208Z" stroke="#080808" stroke-width="8"/>
<path d="M126 256C130.418 256 134 259.582 134 264C134 268.418 130.418 272 126 272C121.582 272 118 268.418 118 264C118 259.582 121.582 256 126 256Z" stroke="#080808" stroke-width="8"/>
<path d="M183 280C187.418 280 191 283.582 191 288C191 292.418 187.418 296 183 296C178.582 296 175 292.418 175 288C175 283.582 178.582 280 183 280Z" stroke="#080808" stroke-width="8"/>
<path d="M130 296C134.418 296 138 299.582 138 304C138 308.418 134.418 312 130 312C125.582 312 122 308.418 122 304C122 299.582 125.582 296 130 296Z" stroke="#080808" stroke-width="8"/>
<path d="M64 312C68.4183 312 72 315.582 72 320C72 324.418 68.4183 328 64 328C59.5817 328 56 324.418 56 320C56 315.582 59.5817 312 64 312Z" stroke="#080808" stroke-width="8"/>
<path d="M59 360C63.4183 360 67 363.582 67 368C67 372.418 63.4183 376 59 376C54.5817 376 51 372.418 51 368C51 363.582 54.5817 360 59 360Z" stroke="#080808" stroke-width="8"/>
<path d="M16 434C20.4183 434 24 437.582 24 442C24 446.418 20.4183 450 16 450C11.5817 450 8 446.418 8 442C8 437.582 11.5817 434 16 434Z" stroke="#080808" stroke-width="8"/>
<path d="M364 412H186L154.5 441.5H24.5M364 396H180.5L150 425H24.5M364 380H174L146.5 406M364 364H195.5M364 348H286.5L255 323H70M364 332H289.5L262 308.5H134.5M364 316H293.5L268.5 292.5H188.5M364 44H177L122 11.5H52.5M364 60H173L119 28.5M364 76.5H173L129.5 54M364 91H16M364 109H145L122 127.5H56.5M365.5 123.5H152.5L129.5 142H44.5M364 300H310.5M364 284H289.5M364 268H134.5M364 140H160L140.5 155M364 156H167.5L150 170.5H101M257.5 348H183.5L144.5 380M167.5 340.5L134.5 369H63.5M364 252H170.5M364 236H16M364 172H174.5L156 187.5H89.5M365.5 187.5H187.5M364 220H134.5M364 204H156" stroke="#080808" stroke-width="8"/>
<path d="M97.5 252H43.5L26 263.5M97.5 71H31" stroke="#080808" stroke-width="8"/>
</svg>
